<svg xmlns="http://www.w3.org/2000/svg" width="1400" height="980" viewBox="0 0 1400 980">
  <rect width="1400" height="980" fill="#f8fafc"/>
  <text x="60" y="70" font-family="Arial, sans-serif" font-size="34" font-weight="700" fill="#0f172a">CurManLight — Full App Audit</text>
  <text x="60" y="108" font-family="Arial, sans-serif" font-size="18" fill="#475569">Baseline main e3c02cbc · Audit prodotto, flussi, dati, UX, accessibilità, mobile, persistenza, qualità e governance</text>

  <g font-family="Arial, sans-serif">
    <rect x="60" y="145" width="400" height="110" rx="18" fill="#dcfce7" stroke="#15803d" stroke-width="2"/>
    <text x="85" y="185" font-size="20" font-weight="700" fill="#14532d">Solido tecnicamente</text>
    <text x="85" y="222" font-size="30" font-weight="700" fill="#14532d">10 aree</text>

    <rect x="500" y="145" width="400" height="110" rx="18" fill="#fef3c7" stroke="#d97706" stroke-width="2"/>
    <text x="525" y="185" font-size="20" font-weight="700" fill="#78350f">Parziale / da validare</text>
    <text x="525" y="222" font-size="30" font-weight="700" fill="#78350f">7 aree</text>

    <rect x="940" y="145" width="400" height="110" rx="18" fill="#fee2e2" stroke="#dc2626" stroke-width="2"/>
    <text x="965" y="185" font-size="20" font-weight="700" fill="#7f1d1d">Mancante / bloccante</text>
    <text x="965" y="222" font-size="30" font-weight="700" fill="#7f1d1d">2 aree</text>

    <text x="60" y="310" font-size="24" font-weight="700" fill="#0f172a">Maturità per area</text>

    <g font-size="16">
      <text x="60" y="355" fill="#334155">Baseline prodotto</text><rect x="300" y="337" width="950" height="24" rx="12" fill="#e2e8f0"/><rect x="300" y="337" width="902" height="24" rx="12" fill="#22c55e"/><text x="1270" y="355" fill="#0f172a">95%</text>
      <text x="60" y="395" fill="#334155">Consultazione curricolo</text><rect x="300" y="377" width="950" height="24" rx="12" fill="#e2e8f0"/><rect x="300" y="377" width="902" height="24" rx="12" fill="#22c55e"/><text x="1270" y="395" fill="#0f172a">95%</text>
      <text x="60" y="435" fill="#334155">Proposta docente</text><rect x="300" y="417" width="950" height="24" rx="12" fill="#e2e8f0"/><rect x="300" y="417" width="874" height="24" rx="12" fill="#22c55e"/><text x="1270" y="435" fill="#0f172a">92%</text>
      <text x="60" y="475" fill="#334155">Dipartimento</text><rect x="300" y="457" width="950" height="24" rx="12" fill="#e2e8f0"/><rect x="300" y="457" width="817" height="24" rx="12" fill="#f59e0b"/><text x="1270" y="475" fill="#0f172a">86%</text>
      <text x="60" y="515" fill="#334155">Referente</text><rect x="300" y="497" width="950" height="24" rx="12" fill="#e2e8f0"/><rect x="300" y="497" width="779" height="24" rx="12" fill="#f59e0b"/><text x="1270" y="515" fill="#0f172a">82%</text>
      <text x="60" y="555" fill="#334155">Persistenza e backup</text><rect x="300" y="537" width="950" height="24" rx="12" fill="#e2e8f0"/><rect x="300" y="537" width="864" height="24" rx="12" fill="#22c55e"/><text x="1270" y="555" fill="#0f172a">91%</text>
      <text x="60" y="595" fill="#334155">UX e orientamento</text><rect x="300" y="577" width="950" height="24" rx="12" fill="#e2e8f0"/><rect x="300" y="577" width="741" height="24" rx="12" fill="#f59e0b"/><text x="1270" y="595" fill="#0f172a">78%</text>
      <text x="60" y="635" fill="#334155">Accessibilità</text><rect x="300" y="617" width="950" height="24" rx="12" fill="#e2e8f0"/><rect x="300" y="617" width="646" height="24" rx="12" fill="#f59e0b"/><text x="1270" y="635" fill="#0f172a">68%</text>
      <text x="60" y="675" fill="#334155">Mobile</text><rect x="300" y="657" width="950" height="24" rx="12" fill="#e2e8f0"/><rect x="300" y="657" width="684" height="24" rx="12" fill="#f59e0b"/><text x="1270" y="675" fill="#0f172a">72%</text>
      <text x="60" y="715" fill="#334155">Pilot umano</text><rect x="300" y="697" width="950" height="24" rx="12" fill="#e2e8f0"/><rect x="300" y="697" width="190" height="24" rx="12" fill="#ef4444"/><text x="1270" y="715" fill="#0f172a">20%</text>
      <text x="60" y="755" fill="#334155">Modalità d’uso</text><rect x="300" y="737" width="950" height="24" rx="12" fill="#e2e8f0"/><rect x="300" y="737" width="333" height="24" rx="12" fill="#ef4444"/><text x="1270" y="755" fill="#0f172a">35%</text>
    </g>

    <text x="60" y="815" font-size="24" font-weight="700" fill="#0f172a">Cinque P1 prima della release</text>
    <g font-size="17" fill="#334155">
      <text x="80" y="850">1. Pilot umano con 3–5 docenti non ancora eseguito</text>
      <text x="80" y="880">2. Audit accessibilità completo non ancora chiuso</text>
      <text x="80" y="910">3. URL React pubblico stabile non formalizzato</text>
      <text x="720" y="850">4. Conflitti e duplicati Dipartimento parziali</text>
      <text x="720" y="880">5. Consolidamento istituzionale Referente mancante</text>
    </g>

    <rect x="60" y="935" width="1280" height="28" rx="14" fill="#0f172a"/>
    <text x="700" y="955" text-anchor="middle" font-size="15" fill="#ffffff">Conclusione: app tecnicamente avanzata; il collo di bottiglia è validazione reale, accessibilità e chiusura istituzionale.</text>
  </g>
</svg>